<?xml version="1.0" encoding="UTF-8" standalone="no"?>
<!-- Created with Inkscape (http://www.inkscape.org/) -->

<svg
   width="500"
   height="500"
   viewBox="0 0 132.29166 132.29167"
   version="1.1"
   id="svg5"
   xmlns="http://www.w3.org/2000/svg"
   xmlns:svg="http://www.w3.org/2000/svg">
  <defs
     id="defs2" />
  <g
     id="layer1"
     transform="translate(-18.0625,-5.2916664)">
    <rect
       style="fill:#ffffff;fill-opacity:1;stroke:#808080;stroke-width:1.81409;stroke-dasharray:none;stroke-opacity:1"
       id="rect111"
       width="58.186001"
       height="77.560905"
       x="26.907045"
       y="14.136211" />
    <rect
       style="fill:#ffffff;fill-opacity:1;stroke:#808080;stroke-width:2.08708;stroke-dasharray:none;stroke-opacity:1"
       id="rect2351"
       width="77.28791"
       height="77.287918"
       x="64.085205"
       y="14.272709" />
    <g
       aria-label="Inside Right"
       id="text225"
       style="font-size:21.8722px;line-height:1.25;font-family:Ubuntu;-inkscape-font-specification:Ubuntu;stroke-width:0.264583">
      <path
         d="m 25.999999,109.83876 h 2.121604 v 15.15743 h -2.121604 z"
         id="path274" />
      <path
         d="m 31.752368,113.95073 q 0.69991,-0.17498 1.859137,-0.37183 1.159227,-0.19685 2.668408,-0.19685 1.356077,0 2.252837,0.3937 0.89676,0.37183 1.421693,1.07174 0.546805,0.67804 0.765527,1.64042 0.218722,0.96237 0.218722,2.1216 v 6.38668 h -2.034115 v -5.94924 q 0,-1.04986 -0.153105,-1.79352 -0.131233,-0.74365 -0.459316,-1.20297 -0.328083,-0.45931 -0.874888,-0.65616 -0.546805,-0.21872 -1.356077,-0.21872 -0.328083,0 -0.678038,0.0219 -0.349955,0.0219 -0.678038,0.0656 -0.306211,0.0219 -0.568677,0.0656 -0.240594,0.0437 -0.349955,0.0656 v 9.60189 h -2.034115 z"
         id="path276" />
      <path
         d="m 46.953535,123.53076 q 1.246715,0 1.837264,-0.32809 0.612422,-0.32808 0.612422,-1.04986 0,-0.74366 -0.590549,-1.1811 -0.59055,-0.43745 -1.946626,-0.98425 -0.656166,-0.26247 -1.268588,-0.52493 -0.590549,-0.28434 -1.027993,-0.65617 -0.437444,-0.37183 -0.699911,-0.89676 -0.262466,-0.52493 -0.262466,-1.29046 0,-1.50918 1.115482,-2.38407 1.115482,-0.89676 3.040236,-0.89676 0.481188,0 0.962377,0.0656 0.481188,0.0437 0.89676,0.13123 0.415572,0.0656 0.721783,0.15311 0.328083,0.0875 0.50306,0.1531 l -0.371827,1.74978 q -0.328083,-0.17498 -1.027994,-0.34996 -0.69991,-0.19685 -1.684159,-0.19685 -0.853016,0 -1.48731,0.34996 -0.634293,0.32808 -0.634293,1.04986 0,0.37183 0.131233,0.65617 0.153105,0.28434 0.437444,0.52493 0.306211,0.21872 0.743655,0.41557 0.437444,0.19685 1.049865,0.41558 0.809272,0.30621 1.443565,0.61242 0.634294,0.28434 1.071738,0.67803 0.459316,0.3937 0.699911,0.96238 0.240594,0.54681 0.240594,1.35608 0,1.5748 -1.181099,2.38407 -1.159227,0.80927 -3.324574,0.80927 -1.509182,0 -2.362198,-0.26247 -0.853016,-0.24059 -1.159227,-0.37182 l 0.371828,-1.74978 q 0.349955,0.13123 1.115482,0.3937 0.765527,0.26247 2.034115,0.26247 z"
         id="path278" />
      <path
         d="M 56.096095,124.99619 H 54.06198 v -11.37354 h 2.034115 z m -1.027993,-13.42953 q -0.546805,0 -0.940505,-0.34995 -0.371827,-0.37183 -0.371827,-0.98425 0,-0.61242 0.371827,-0.96238 0.3937,-0.37183 0.940505,-0.37183 0.546805,0 0.918632,0.37183 0.3937,0.34996 0.3937,0.96238 0,0.61242 -0.3937,0.98425 -0.371827,0.34995 -0.918632,0.34995 z"
         id="path280" />
      <path
         d="m 66.94467,116.02859 q -0.371827,-0.30621 -1.071738,-0.59055 -0.69991,-0.28434 -1.531054,-0.28434 -0.874888,0 -1.509182,0.32809 -0.612421,0.30621 -1.006121,0.87488 -0.393699,0.54681 -0.568677,1.31234 -0.174978,0.76552 -0.174978,1.64041 0,1.99037 0.984249,3.08398 0.984249,1.07174 2.624664,1.07174 0.831144,0 1.377949,-0.0656 0.568677,-0.0875 0.874888,-0.17498 z m 0,-7.65527 2.034115,-0.34995 v 16.64474 q -0.699911,0.19685 -1.793521,0.3937 -1.09361,0.19685 -2.515303,0.19685 -1.312332,0 -2.362197,-0.41557 -1.049866,-0.41557 -1.793521,-1.1811 -0.743655,-0.76553 -1.159226,-1.85914 -0.3937,-1.11548 -0.3937,-2.49343 0,-1.31233 0.328083,-2.40594 0.349955,-1.09361 1.006121,-1.88101 0.656166,-0.7874 1.596671,-1.22484 0.962377,-0.43745 2.18722,-0.43745 0.984249,0 1.727904,0.26247 0.765527,0.26247 1.137354,0.50306 z"
         id="path282" />
      <path
         d="m 71.844015,119.33129 q 0,-1.50918 0.437444,-2.62466 0.437444,-1.13736 1.159227,-1.88101 0.721782,-0.74365 1.662287,-1.11548 0.940504,-0.37183 1.924753,-0.37183 2.296581,0 3.521425,1.44357 1.224843,1.42169 1.224843,4.35256 0,0.13124 0,0.34996 0,0.19685 -0.02187,0.37183 H 73.96562 q 0.131234,1.77164 1.027994,2.69028 0.89676,0.91863 2.799641,0.91863 1.071738,0 1.793521,-0.17498 0.743655,-0.19685 1.115482,-0.37183 l 0.284339,1.70604 q -0.371828,0.19685 -1.312332,0.41557 -0.918633,0.21872 -2.099732,0.21872 -1.487309,0 -2.580919,-0.43744 -1.071738,-0.45932 -1.771648,-1.24672 -0.699911,-0.7874 -1.049866,-1.85914 -0.328083,-1.09361 -0.328083,-2.38407 z m 7.808375,-1.11548 q 0.02187,-1.37795 -0.69991,-2.25284 -0.69991,-0.89676 -1.946626,-0.89676 -0.69991,0 -1.246715,0.28434 -0.524933,0.26247 -0.89676,0.69991 -0.371828,0.43745 -0.59055,1.00612 -0.19685,0.56868 -0.262466,1.15923 z"
         id="path284" />
      <path
         d="m 97.303194,118.65325 q 0.349955,0.43745 0.874888,1.15923 0.546805,0.69991 1.115482,1.5748 0.568678,0.85302 1.115486,1.79352 0.56867,0.9405 0.96237,1.81539 h -2.31845 q -0.437444,-0.83114 -0.962377,-1.68416 -0.50306,-0.85301 -1.027993,-1.61854 -0.524933,-0.7874 -1.049866,-1.46544 -0.50306,-0.67803 -0.918632,-1.1811 -0.284339,0.0219 -0.590549,0.0219 -0.284339,0 -0.59055,0 h -1.902881 v 5.92736 H 89.888518 V 110.0575 q 0.896761,-0.21872 1.990371,-0.28434 1.115482,-0.0875 2.034114,-0.0875 3.193341,0 4.855629,1.20297 1.684158,1.20297 1.684158,3.58704 0,1.50919 -0.80927,2.58092 -0.7874,1.07174 -2.340326,1.59667 z m -3.215213,-7.10846 q -1.356077,0 -2.077859,0.0656 v 5.70864 h 1.509182 q 1.09361,0 1.968498,-0.10936 0.874888,-0.10936 1.465437,-0.41557 0.612422,-0.30621 0.940505,-0.85302 0.328083,-0.56868 0.328083,-1.48731 0,-0.85301 -0.328083,-1.42169 -0.328083,-0.56868 -0.896761,-0.89676 -0.546805,-0.32808 -1.312332,-0.45932 -0.743654,-0.13123 -1.59667,-0.13123 z"
         id="path286" />
      <path
         d="m 105.54901,124.99619 h -2.03412 v -11.37354 h 2.03412 z m -1.028,-13.42953 q -0.5468,0 -0.9405,-0.34995 -0.37183,-0.37183 -0.37183,-0.98425 0,-0.61242 0.37183,-0.96238 0.3937,-0.37183 0.9405,-0.37183 0.54681,0 0.91864,0.37183 0.39369,0.34996 0.39369,0.96238 0,0.61242 -0.39369,0.98425 -0.37183,0.34995 -0.91864,0.34995 z"
         id="path288" />
      <path
         d="m 116.17886,123.85884 q -0.26247,0.17498 -1.02799,0.45931 -0.74366,0.26247 -1.74978,0.26247 -1.02799,0 -1.94663,-0.32808 -0.89676,-0.32808 -1.57479,-1.00612 -0.67804,-0.69991 -1.07174,-1.72791 -0.3937,-1.02799 -0.3937,-2.44968 0,-1.24672 0.37183,-2.27471 0.37182,-1.04987 1.07173,-1.79352 0.72179,-0.76553 1.74978,-1.1811 1.02799,-0.43745 2.31845,-0.43745 1.4217,0 2.47156,0.21873 1.07174,0.19685 1.79352,0.37182 v 10.1487 q 0,2.62467 -1.35607,3.80577 -1.35608,1.1811 -4.11198,1.1811 -1.07174,0 -2.03411,-0.17498 -0.94051,-0.17498 -1.64042,-0.41557 l 0.37183,-1.77165 q 0.61242,0.24059 1.48731,0.41557 0.89676,0.19685 1.85914,0.19685 1.81539,0 2.60279,-0.72178 0.80927,-0.72178 0.80927,-2.29658 z m -0.0219,-8.44267 q -0.30621,-0.0875 -0.83115,-0.15311 -0.50306,-0.0875 -1.37795,-0.0875 -1.64041,0 -2.53717,1.07173 -0.87489,1.07174 -0.87489,2.84339 0,0.98425 0.2406,1.68416 0.26246,0.69991 0.67803,1.15922 0.43745,0.45932 0.98425,0.67804 0.56868,0.21873 1.15923,0.21873 0.80927,0 1.48731,-0.21873 0.67804,-0.24059 1.07174,-0.5468 z"
         id="path290" />
      <path
         d="m 121.69063,124.99619 v -16.62287 l 2.03412,-0.34995 v 5.818 q 0.56868,-0.21872 1.20297,-0.32808 0.65617,-0.13124 1.29046,-0.13124 1.35608,0 2.25284,0.3937 0.89676,0.37183 1.42169,1.07174 0.5468,0.67804 0.76553,1.64042 0.21872,0.96237 0.21872,2.1216 v 6.38668 h -2.03412 v -5.94924 q 0,-1.04986 -0.1531,-1.79352 -0.13123,-0.74365 -0.45932,-1.20297 -0.32808,-0.45931 -0.87489,-0.65616 -0.5468,-0.21872 -1.35607,-0.21872 -0.32808,0 -0.67804,0.0437 -0.34996,0.0437 -0.67804,0.10936 -0.30621,0.0437 -0.56868,0.10936 -0.24059,0.0656 -0.34995,0.10936 v 9.44879 z"
         id="path292" />
      <path
         d="m 136.08252,113.62265 h 4.30883 v 1.70603 h -4.30883 v 5.24933 q 0,0.85301 0.13124,1.42169 0.13123,0.54681 0.3937,0.87489 0.26246,0.30621 0.65616,0.43744 0.3937,0.13124 0.91863,0.13124 0.91864,0 1.46544,-0.19685 0.56868,-0.21873 0.7874,-0.30621 l 0.3937,1.68416 q -0.30621,0.1531 -1.07174,0.37182 -0.76553,0.2406 -1.74977,0.2406 -1.15923,0 -1.92476,-0.28434 -0.74365,-0.30621 -1.20297,-0.89676 -0.45931,-0.59055 -0.65616,-1.44357 -0.17498,-0.87488 -0.17498,-2.01224 v -10.1487 l 2.03411,-0.34996 z"
         id="path294" />
    </g>
    <g
       aria-label="Message Here"
       id="text272"
       style="font-size:8.46667px;line-height:1.25;font-family:Ubuntu;-inkscape-font-specification:Ubuntu;stroke-width:0.264583">
      <path
         d="m 78.362496,53.331666 q -0.08467,-0.2032 -0.2286,-0.516467 -0.135466,-0.313267 -0.296333,-0.677333 -0.160867,-0.364067 -0.347134,-0.745067 -0.1778,-0.389467 -0.338666,-0.728134 -0.160867,-0.347133 -0.304801,-0.618067 -0.135466,-0.270933 -0.220133,-0.414867 -0.09313,0.999067 -0.1524,2.167468 -0.05927,1.159934 -0.1016,2.345267 h -0.804334 q 0.03387,-0.762 0.0762,-1.532467 0.04233,-0.778934 0.09313,-1.524 0.05927,-0.753534 0.118533,-1.464734 0.06773,-0.711201 0.143933,-1.346201 h 0.719667 q 0.2286,0.372534 0.491067,0.880534 0.262467,0.508 0.524934,1.0668 0.262467,0.550334 0.508,1.109134 0.245533,0.550334 0.448733,1.007534 0.203201,-0.4572 0.448734,-1.007534 0.245533,-0.5588 0.508,-1.109134 0.262467,-0.5588 0.524934,-1.0668 0.262466,-0.508 0.491067,-0.880534 h 0.719667 q 0.287866,2.836335 0.4318,5.867402 H 81.01256 q -0.04233,-1.185333 -0.1016,-2.345267 -0.05927,-1.168401 -0.1524,-2.167468 -0.08467,0.143934 -0.2286,0.414867 -0.135467,0.270934 -0.296334,0.618067 -0.160866,0.338667 -0.347133,0.728134 -0.1778,0.381 -0.338667,0.745067 -0.160867,0.364066 -0.3048,0.677333 -0.135467,0.313267 -0.220133,0.516467 z"
         id="path297" />
      <path
         d="m 82.807484,51.951599 q 0,-0.5842 0.169334,-1.016001 0.169333,-0.440266 0.448733,-0.728133 0.2794,-0.287867 0.643467,-0.4318 0.364067,-0.143934 0.745067,-0.143934 0.889001,0 1.363134,0.5588 0.474134,0.550334 0.474134,1.684868 0,0.0508 0,0.135467 0,0.0762 -0.0085,0.143933 h -3.014135 q 0.0508,0.6858 0.397934,1.0414 0.347133,0.3556 1.083734,0.3556 0.414867,0 0.694267,-0.06773 0.287866,-0.0762 0.4318,-0.143933 l 0.110067,0.6604 q -0.143934,0.0762 -0.508001,0.160867 -0.3556,0.08467 -0.8128,0.08467 -0.575734,0 -0.999067,-0.169333 -0.414867,-0.1778 -0.6858,-0.4826 -0.270934,-0.3048 -0.406401,-0.719667 -0.127,-0.423334 -0.127,-0.922867 z m 3.022602,-0.4318 q 0.0085,-0.533401 -0.270934,-0.872067 -0.270933,-0.347134 -0.753533,-0.347134 -0.270934,0 -0.482601,0.110067 -0.2032,0.1016 -0.347133,0.270933 -0.143933,0.169334 -0.2286,0.389467 -0.0762,0.220134 -0.1016,0.448734 z"
         id="path299" />
      <path
         d="m 88.810337,53.5772 q 0.482601,0 0.711201,-0.127001 0.237066,-0.127 0.237066,-0.4064 0,-0.287866 -0.2286,-0.4572 -0.2286,-0.169333 -0.753533,-0.381 -0.254,-0.1016 -0.491067,-0.2032 -0.2286,-0.110067 -0.397934,-0.254 -0.169333,-0.143934 -0.270933,-0.347134 -0.1016,-0.2032 -0.1016,-0.499533 0,-0.5842 0.4318,-0.922867 0.4318,-0.347134 1.176867,-0.347134 0.186267,0 0.372534,0.0254 0.186266,0.01693 0.347133,0.0508 0.160867,0.0254 0.2794,0.05927 0.127,0.03387 0.194734,0.05927 l -0.143934,0.677333 q -0.127,-0.06773 -0.397933,-0.135466 -0.270934,-0.0762 -0.651934,-0.0762 -0.3302,0 -0.575733,0.135466 -0.245534,0.127 -0.245534,0.4064 0,0.143934 0.0508,0.254001 0.05927,0.110066 0.169334,0.2032 0.118533,0.08467 0.287866,0.160866 0.169334,0.0762 0.406401,0.160867 0.313266,0.118533 0.5588,0.237067 0.245533,0.110067 0.414867,0.262467 0.1778,0.1524 0.270933,0.372533 0.09313,0.211667 0.09313,0.524934 0,0.6096 -0.4572,0.922867 -0.448733,0.313266 -1.286934,0.313266 -0.5842,0 -0.9144,-0.1016 -0.3302,-0.09313 -0.448733,-0.143933 l 0.143933,-0.677334 q 0.135467,0.0508 0.4318,0.1524 0.296334,0.101601 0.7874,0.101601 z"
         id="path301" />
      <path
         d="m 92.586465,53.5772 q 0.4826,0 0.7112,-0.127001 0.237067,-0.127 0.237067,-0.4064 0,-0.287866 -0.2286,-0.4572 -0.2286,-0.169333 -0.753533,-0.381 -0.254001,-0.1016 -0.491067,-0.2032 -0.2286,-0.110067 -0.397934,-0.254 -0.169333,-0.143934 -0.270933,-0.347134 -0.1016,-0.2032 -0.1016,-0.499533 0,-0.5842 0.4318,-0.922867 0.4318,-0.347134 1.176867,-0.347134 0.186267,0 0.372533,0.0254 0.186267,0.01693 0.347134,0.0508 0.160867,0.0254 0.2794,0.05927 0.127,0.03387 0.194733,0.05927 l -0.143933,0.677333 q -0.127,-0.06773 -0.397933,-0.135466 -0.270934,-0.0762 -0.651934,-0.0762 -0.3302,0 -0.575734,0.135466 -0.245533,0.127 -0.245533,0.4064 0,0.143934 0.0508,0.254001 0.05927,0.110066 0.169333,0.2032 0.118534,0.08467 0.287867,0.160866 0.169334,0.0762 0.4064,0.160867 0.313267,0.118533 0.558801,0.237067 0.245533,0.110067 0.414866,0.262467 0.1778,0.1524 0.270934,0.372533 0.09313,0.211667 0.09313,0.524934 0,0.6096 -0.4572,0.922867 -0.448733,0.313266 -1.286934,0.313266 -0.5842,0 -0.9144,-0.1016 -0.3302,-0.09313 -0.448734,-0.143933 l 0.143934,-0.677334 q 0.135466,0.0508 0.4318,0.1524 0.296333,0.101601 0.7874,0.101601 z"
         id="path303" />
      <path
         d="m 96.828259,53.5772 q 0.2794,0 0.491067,-0.0085 0.220133,-0.01693 0.364067,-0.0508 v -1.312334 q -0.08467,-0.04233 -0.279401,-0.06773 -0.186266,-0.03387 -0.4572,-0.03387 -0.1778,0 -0.381,0.0254 -0.194733,0.0254 -0.364067,0.110067 -0.160866,0.0762 -0.270933,0.220133 -0.110067,0.135467 -0.110067,0.364067 0,0.423333 0.270934,0.592667 0.270933,0.160867 0.7366,0.160867 z m -0.06773,-3.945469 q 0.474133,0 0.795867,0.127 0.3302,0.118534 0.524933,0.347134 0.2032,0.220133 0.287867,0.5334 0.08467,0.3048 0.08467,0.677334 v 2.751667 q -0.1016,0.01693 -0.287867,0.0508 -0.1778,0.0254 -0.4064,0.0508 -0.2286,0.0254 -0.499534,0.04233 -0.262467,0.0254 -0.524933,0.0254 -0.372534,0 -0.685801,-0.0762 -0.313267,-0.0762 -0.541867,-0.237067 -0.2286,-0.169333 -0.3556,-0.440267 -0.127,-0.270933 -0.127,-0.651933 0,-0.364067 0.143934,-0.626534 0.1524,-0.262467 0.4064,-0.423334 0.254,-0.160866 0.592667,-0.237066 0.338666,-0.0762 0.7112,-0.0762 0.118533,0 0.245533,0.01693 0.127,0.0085 0.237067,0.03387 0.118534,0.01693 0.2032,0.03387 0.08467,0.01693 0.118534,0.0254 v -0.220133 q 0,-0.194733 -0.04233,-0.381 -0.04233,-0.194734 -0.1524,-0.338667 -0.110067,-0.1524 -0.3048,-0.237067 -0.186267,-0.09313 -0.491067,-0.09313 -0.389467,0 -0.6858,0.05927 -0.287867,0.0508 -0.4318,0.110066 l -0.09313,-0.651933 q 0.1524,-0.06773 0.508001,-0.127 0.3556,-0.06773 0.770467,-0.06773 z"
         id="path305" />
      <path
         d="m 102.51786,53.7042 q -0.1016,0.06773 -0.39794,0.1778 -0.28787,0.1016 -0.67733,0.1016 -0.39794,0 -0.75354,-0.127 -0.34713,-0.127 -0.6096,-0.389467 -0.262463,-0.270934 -0.414863,-0.668867 -0.1524,-0.397934 -0.1524,-0.948267 0,-0.4826 0.143934,-0.880534 0.143933,-0.4064 0.414869,-0.694267 0.2794,-0.296333 0.67733,-0.4572 0.39793,-0.169333 0.89747,-0.169333 0.55033,0 0.95673,0.08467 0.41487,0.0762 0.69427,0.143934 V 53.8058 q 0,1.016 -0.52493,1.4732 -0.52494,0.4572 -1.59174,0.4572 -0.41487,0 -0.7874,-0.06773 -0.36407,-0.06773 -0.634999,-0.160867 l 0.143933,-0.6858 q 0.237066,0.09313 0.575736,0.160867 0.34713,0.0762 0.71966,0.0762 0.70274,0 1.00754,-0.2794 0.31327,-0.2794 0.31327,-0.889001 z m -0.008,-3.268135 q -0.11853,-0.03387 -0.32173,-0.05927 -0.19474,-0.03387 -0.53341,-0.03387 -0.635,0 -0.98213,0.414866 -0.33867,0.414867 -0.33867,1.100667 0,0.381001 0.0931,0.651934 0.1016,0.270934 0.26246,0.448734 0.16934,0.1778 0.381,0.262466 0.22014,0.08467 0.44874,0.08467 0.31326,0 0.57573,-0.08467 0.26247,-0.09313 0.41487,-0.211666 z"
         id="path307" />
      <path
         d="m 104.40592,51.951599 q 0,-0.5842 0.16933,-1.016001 0.16933,-0.440266 0.44873,-0.728133 0.2794,-0.287867 0.64347,-0.4318 0.36407,-0.143934 0.74507,-0.143934 0.889,0 1.36313,0.5588 0.47413,0.550334 0.47413,1.684868 0,0.0508 0,0.135467 0,0.0762 -0.008,0.143933 h -3.01414 q 0.0508,0.6858 0.39794,1.0414 0.34713,0.3556 1.08373,0.3556 0.41487,0 0.69427,-0.06773 0.28786,-0.0762 0.4318,-0.143933 l 0.11006,0.6604 q -0.14393,0.0762 -0.508,0.160867 -0.3556,0.08467 -0.8128,0.08467 -0.57573,0 -0.99906,-0.169333 -0.41487,-0.1778 -0.6858,-0.4826 -0.27094,-0.3048 -0.4064,-0.719667 -0.127,-0.423334 -0.127,-0.922867 z m 3.0226,-0.4318 q 0.008,-0.533401 -0.27094,-0.872067 -0.27093,-0.347134 -0.75353,-0.347134 -0.27093,0 -0.4826,0.110067 -0.2032,0.1016 -0.34713,0.270933 -0.14394,0.169334 -0.2286,0.389467 -0.0762,0.220134 -0.1016,0.448734 z"
         id="path309" />
      <path
         d="m 115.08236,48.277064 h 0.82127 v 5.867402 h -0.82127 v -2.709334 h -2.8702 v 2.709334 h -0.82126 v -5.867402 h 0.82126 v 2.446868 h 2.8702 z"
         id="path311" />
      <path
         d="m 117.06356,51.951599 q 0,-0.5842 0.16934,-1.016001 0.16933,-0.440266 0.44873,-0.728133 0.2794,-0.287867 0.64347,-0.4318 0.36406,-0.143934 0.74506,-0.143934 0.889,0 1.36314,0.5588 0.47413,0.550334 0.47413,1.684868 0,0.0508 0,0.135467 0,0.0762 -0.008,0.143933 h -3.01414 q 0.0508,0.6858 0.39793,1.0414 0.34714,0.3556 1.08374,0.3556 0.41486,0 0.69426,-0.06773 0.28787,-0.0762 0.4318,-0.143933 l 0.11007,0.6604 q -0.14393,0.0762 -0.508,0.160867 -0.3556,0.08467 -0.8128,0.08467 -0.57573,0 -0.99907,-0.169333 -0.41486,-0.1778 -0.6858,-0.4826 -0.27093,-0.3048 -0.4064,-0.719667 -0.127,-0.423334 -0.127,-0.922867 z m 3.0226,-0.4318 q 0.008,-0.533401 -0.27093,-0.872067 -0.27093,-0.347134 -0.75353,-0.347134 -0.27094,0 -0.4826,0.110067 -0.2032,0.1016 -0.34714,0.270933 -0.14393,0.169334 -0.2286,0.389467 -0.0762,0.220134 -0.1016,0.448734 z"
         id="path313" />
      <path
         d="m 123.66755,49.648665 q 0.1016,0 0.2286,0.01693 0.13547,0.0085 0.26247,0.03387 0.127,0.01693 0.2286,0.04233 0.11006,0.01693 0.16086,0.03387 l -0.13546,0.6858 q -0.0931,-0.03387 -0.31327,-0.0762 -0.21167,-0.0508 -0.55033,-0.0508 -0.22014,0 -0.44027,0.0508 -0.21167,0.04233 -0.2794,0.05927 v 3.699934 h -0.7874 v -4.216401 q 0.2794,-0.1016 0.69427,-0.186267 0.41486,-0.09313 0.93133,-0.09313 z"
         id="path315" />
      <path
         d="m 125.06455,51.951599 q 0,-0.5842 0.16933,-1.016001 0.16933,-0.440266 0.44873,-0.728133 0.2794,-0.287867 0.64347,-0.4318 0.36407,-0.143934 0.74507,-0.143934 0.889,0 1.36313,0.5588 0.47414,0.550334 0.47414,1.684868 0,0.0508 0,0.135467 0,0.0762 -0.008,0.143933 h -3.01414 q 0.0508,0.6858 0.39794,1.0414 0.34713,0.3556 1.08373,0.3556 0.41487,0 0.69427,-0.06773 0.28787,-0.0762 0.4318,-0.143933 l 0.11007,0.6604 q -0.14394,0.0762 -0.508,0.160867 -0.3556,0.08467 -0.8128,0.08467 -0.57574,0 -0.99907,-0.169333 -0.41487,-0.1778 -0.6858,-0.4826 -0.27094,-0.3048 -0.4064,-0.719667 -0.127,-0.423334 -0.127,-0.922867 z m 3.0226,-0.4318 q 0.008,-0.533401 -0.27093,-0.872067 -0.27094,-0.347134 -0.75354,-0.347134 -0.27093,0 -0.4826,0.110067 -0.2032,0.1016 -0.34713,0.270933 -0.14394,0.169334 -0.2286,0.389467 -0.0762,0.220134 -0.1016,0.448734 z"
         id="path317" />
    </g>
  </g>
</svg>
