<?xml version="1.0" encoding="UTF-8" standalone="no"?>
<!-- Created with Inkscape (http://www.inkscape.org/) -->

<svg
   width="500"
   height="500"
   viewBox="0 0 132.29166 132.29167"
   version="1.1"
   id="svg5"
   xmlns="http://www.w3.org/2000/svg"
   xmlns:svg="http://www.w3.org/2000/svg">
  <defs
     id="defs2" />
  <g
     id="layer1"
     transform="translate(-18.0625,-5.2916664)">
    <rect
       style="fill:#ffffff;fill-opacity:1;stroke:#808080;stroke-width:1.81409;stroke-dasharray:none;stroke-opacity:1"
       id="rect111"
       width="58.186001"
       height="77.560905"
       x="82.469543"
       y="14.136211" />
    <rect
       style="fill:#ffffff;fill-opacity:1;stroke:#808080;stroke-width:2.08708;stroke-dasharray:none;stroke-opacity:1"
       id="rect2351"
       width="77.28791"
       height="77.287918"
       x="27.043541"
       y="14.272709" />
    <g
       aria-label="Inside Left"
       id="text225"
       style="font-size:24.6944px;line-height:1.25;font-family:Ubuntu;-inkscape-font-specification:Ubuntu;stroke-width:0.264583">
      <path
         d="m 26,107.88297 h 2.395357 v 17.11322 H 26 Z"
         id="path168" />
      <path
         d="m 32.494606,112.52552 q 0.79022,-0.19755 2.099024,-0.4198 1.308803,-0.22225 3.012716,-0.22225 1.531053,0 2.543524,0.4445 1.01247,0.4198 1.605136,1.21002 0.61736,0.76553 0.864304,1.85208 0.246944,1.08655 0.246944,2.39536 v 7.21076 h -2.296579 v -6.71687 q 0,-1.18534 -0.172861,-2.02494 -0.148167,-0.83961 -0.518583,-1.3582 -0.370416,-0.51858 -0.987776,-0.74083 -0.61736,-0.24694 -1.531053,-0.24694 -0.370416,0 -0.765526,0.0247 -0.39511,0.0247 -0.765526,0.0741 -0.345722,0.0247 -0.642055,0.0741 -0.271638,0.0494 -0.39511,0.0741 v 10.84084 h -2.296579 z"
         id="path170" />
      <path
         d="m 49.657199,123.34167 q 1.407581,0 2.07433,-0.37042 0.691443,-0.37041 0.691443,-1.18533 0,-0.83961 -0.666749,-1.3335 -0.666749,-0.49388 -2.197802,-1.11124 -0.740832,-0.29634 -1.432275,-0.59267 -0.666749,-0.32103 -1.160637,-0.74083 -0.493888,-0.41981 -0.79022,-1.01247 -0.296333,-0.59267 -0.296333,-1.45697 0,-1.70392 1.259414,-2.69169 1.259415,-1.01247 3.432522,-1.01247 0.543277,0 1.086554,0.0741 0.543276,0.0494 1.01247,0.14817 0.469194,0.0741 0.814915,0.17286 0.370416,0.0988 0.567971,0.17286 l -0.419804,1.97555 q -0.370416,-0.19755 -1.160637,-0.39511 -0.790221,-0.22225 -1.901469,-0.22225 -0.963082,0 -1.679219,0.39511 -0.716138,0.37042 -0.716138,1.18533 0,0.41981 0.148166,0.74083 0.172861,0.32103 0.493888,0.59267 0.345722,0.24694 0.83961,0.46919 0.493888,0.22225 1.185331,0.4692 0.913693,0.34572 1.629831,0.69144 0.716137,0.32103 1.210025,0.76553 0.518583,0.4445 0.790221,1.08655 0.271639,0.61736 0.271639,1.53105 0,1.778 -1.333498,2.69169 -1.308803,0.9137 -3.753549,0.9137 -1.703914,0 -2.666995,-0.29634 -0.963082,-0.27164 -1.308803,-0.4198 l 0.419804,-1.97555 q 0.395111,0.14816 1.259415,0.4445 0.864304,0.29633 2.296579,0.29633 z"
         id="path172" />
      <path
         d="M 59.979437,124.99619 H 57.682858 V 112.1551 h 2.296579 z M 58.8188,109.83383 q -0.61736,0 -1.061859,-0.39511 -0.419805,-0.4198 -0.419805,-1.11125 0,-0.69144 0.419805,-1.08655 0.444499,-0.41981 1.061859,-0.41981 0.61736,0 1.037165,0.41981 0.444499,0.39511 0.444499,1.08655 0,0.69145 -0.444499,1.11125 -0.419805,0.39511 -1.037165,0.39511 z"
         id="path174" />
      <path
         d="m 72.227819,114.87149 q -0.419805,-0.34572 -1.210025,-0.66675 -0.790221,-0.32103 -1.728609,-0.32103 -0.987776,0 -1.703913,0.37042 -0.691443,0.34572 -1.135943,0.98777 -0.444499,0.61736 -0.642054,1.48167 -0.197555,0.8643 -0.197555,1.85208 0,2.24719 1.111248,3.48191 1.111248,1.21002 2.963328,1.21002 0.938387,0 1.555747,-0.0741 0.642055,-0.0988 0.987776,-0.19755 z m 0,-8.64304 2.296579,-0.39511 v 18.79244 q -0.79022,0.22225 -2.02494,0.4445 -1.23472,0.22225 -2.839857,0.22225 -1.481664,0 -2.666995,-0.4692 -1.185331,-0.46919 -2.024941,-1.3335 -0.839609,-0.8643 -1.308803,-2.09902 -0.444499,-1.25941 -0.444499,-2.81516 0,-1.48167 0.370416,-2.71639 0.39511,-1.23472 1.135942,-2.12371 0.740832,-0.889 1.802692,-1.38289 1.086553,-0.49389 2.46944,-0.49389 1.111248,0 1.950857,0.29633 0.864304,0.29634 1.284109,0.56798 z"
         id="path176" />
      <path
         d="m 77.759334,118.60034 q 0,-1.70391 0.493888,-2.96332 0.493888,-1.28411 1.308804,-2.12372 0.814915,-0.83961 1.876774,-1.25942 1.061859,-0.4198 2.173107,-0.4198 2.592912,0 3.975799,1.62983 1.382886,1.60513 1.382886,4.91418 0,0.14817 0,0.39511 0,0.22225 -0.02469,0.41981 h -8.791207 q 0.148167,2.00025 1.160637,3.03741 1.01247,1.03716 3.160883,1.03716 1.210026,0 2.024941,-0.19755 0.83961,-0.22225 1.259415,-0.41981 l 0.321027,1.92617 q -0.419805,0.22225 -1.481664,0.46919 -1.037165,0.24695 -2.370663,0.24695 -1.679219,0 -2.913939,-0.49389 -1.210026,-0.51858 -2.000246,-1.40758 -0.790221,-0.889 -1.185332,-2.09903 -0.370416,-1.23472 -0.370416,-2.69169 z m 8.815901,-1.25941 q 0.02469,-1.55575 -0.79022,-2.54352 -0.790221,-1.01248 -2.197802,-1.01248 -0.790221,0 -1.407581,0.32103 -0.592666,0.29633 -1.01247,0.79022 -0.419805,0.49389 -0.666749,1.13595 -0.22225,0.64205 -0.296333,1.3088 z"
         id="path178" />
      <path
         d="m 108.42971,122.92186 v 2.07433 H 98.132141 v -17.11322 h 2.395359 v 15.03889 z"
         id="path180" />
      <path
         d="m 109.78786,118.60034 q 0,-1.70391 0.49388,-2.96332 0.49389,-1.28411 1.30881,-2.12372 0.81491,-0.83961 1.87677,-1.25942 1.06186,-0.4198 2.17311,-0.4198 2.59291,0 3.9758,1.62983 1.38288,1.60513 1.38288,4.91418 0,0.14817 0,0.39511 0,0.22225 -0.0247,0.41981 h -8.79121 q 0.14817,2.00025 1.16064,3.03741 1.01247,1.03716 3.16088,1.03716 1.21003,0 2.02494,-0.19755 0.83961,-0.22225 1.25942,-0.41981 l 0.32103,1.92617 q -0.41981,0.22225 -1.48167,0.46919 -1.03716,0.24695 -2.37066,0.24695 -1.67922,0 -2.91394,-0.49389 -1.21003,-0.51858 -2.00025,-1.40758 -0.79022,-0.889 -1.18533,-2.09903 -0.37041,-1.23472 -0.37041,-2.69169 z m 8.8159,-1.25941 q 0.0247,-1.55575 -0.79022,-2.54352 -0.79022,-1.01248 -2.1978,-1.01248 -0.79023,0 -1.40759,0.32103 -0.59266,0.29633 -1.01247,0.79022 -0.4198,0.49389 -0.66674,1.13595 -0.22225,0.64205 -0.29634,1.3088 z"
         id="path182" />
      <path
         d="m 129.32108,105.83334 q 1.01247,0 1.72861,0.14816 0.74083,0.14817 1.03716,0.27164 l -0.4198,1.97555 q -0.29633,-0.14816 -0.83961,-0.27163 -0.54328,-0.14817 -1.3335,-0.14817 -1.60513,0 -2.24719,0.889 -0.64205,0.8643 -0.64205,2.34597 v 1.11124 h 4.93888 v 1.92617 h -4.93888 v 10.91492 h -2.29658 v -14.00172 q 0,-2.46944 1.21002,-3.80294 1.21003,-1.35819 3.80294,-1.35819 z"
         id="path184" />
      <path
         d="m 135.98856,112.1551 h 4.8648 v 1.92617 h -4.8648 v 5.92665 q 0,0.96309 0.14816,1.60514 0.14817,0.61736 0.4445,0.98778 0.29634,0.34572 0.74084,0.49388 0.4445,0.14817 1.03716,0.14817 1.03717,0 1.65453,-0.22225 0.64205,-0.24694 0.88899,-0.34572 l 0.4445,1.90147 q -0.34572,0.17286 -1.21002,0.4198 -0.86431,0.27164 -1.97555,0.27164 -1.30881,0 -2.17311,-0.32103 -0.83961,-0.34572 -1.35819,-1.01247 -0.51859,-0.66675 -0.74084,-1.62983 -0.19755,-0.98777 -0.19755,-2.27188 v -11.4582 l 2.29658,-0.39511 z"
         id="path186" />
    </g>
    <g
       aria-label="Message Here"
       id="text243"
       style="font-size:8.46667px;line-height:1.25;font-family:Ubuntu;-inkscape-font-specification:Ubuntu;stroke-width:0.264583">
      <path
         d="m 40.895543,55.470838 q -0.08467,-0.2032 -0.2286,-0.516467 -0.135467,-0.313267 -0.296333,-0.677334 -0.160867,-0.364067 -0.347134,-0.745067 -0.1778,-0.389467 -0.338667,-0.728133 -0.160866,-0.347134 -0.3048,-0.618067 -0.135467,-0.270934 -0.220133,-0.414867 -0.09313,0.999067 -0.1524,2.167467 -0.05927,1.159934 -0.1016,2.345268 h -0.804334 q 0.03387,-0.762 0.0762,-1.532467 0.04233,-0.778934 0.09313,-1.524001 0.05927,-0.753534 0.118534,-1.464734 0.06773,-0.7112 0.143933,-1.3462 h 0.719667 q 0.2286,0.372533 0.491067,0.880533 0.262467,0.508001 0.524933,1.066801 0.262467,0.550333 0.508001,1.109134 0.245533,0.550333 0.448733,1.007533 0.2032,-0.4572 0.448734,-1.007533 0.245533,-0.558801 0.508,-1.109134 0.262467,-0.5588 0.524933,-1.066801 0.262467,-0.508 0.491067,-0.880533 h 0.719667 q 0.287867,2.836334 0.4318,5.867402 h -0.804333 q -0.04233,-1.185334 -0.1016,-2.345268 -0.05927,-1.1684 -0.1524,-2.167467 -0.08467,0.143933 -0.2286,0.414867 -0.135467,0.270933 -0.296334,0.618067 -0.160867,0.338666 -0.347133,0.728133 -0.1778,0.381 -0.338667,0.745067 -0.160867,0.364067 -0.3048,0.677334 -0.135467,0.313267 -0.220134,0.516467 z"
         id="path245" />
      <path
         d="m 45.340531,54.09077 q 0,-0.5842 0.169334,-1.016 0.169333,-0.440267 0.448733,-0.728134 0.2794,-0.287866 0.643467,-0.4318 0.364067,-0.143933 0.745067,-0.143933 0.889,0 1.363134,0.5588 0.474133,0.550334 0.474133,1.684867 0,0.0508 0,0.135467 0,0.0762 -0.0085,0.143934 h -3.014135 q 0.0508,0.6858 0.397934,1.0414 0.347133,0.3556 1.083733,0.3556 0.414867,0 0.694267,-0.06773 0.287867,-0.0762 0.431801,-0.143934 l 0.110066,0.660401 q -0.143933,0.0762 -0.508,0.160866 -0.3556,0.08467 -0.8128,0.08467 -0.575734,0 -0.999067,-0.169333 -0.414867,-0.1778 -0.685801,-0.482601 -0.270933,-0.3048 -0.4064,-0.719667 -0.127,-0.423333 -0.127,-0.922867 z m 3.022601,-0.4318 q 0.0085,-0.5334 -0.270933,-0.872067 -0.270934,-0.347133 -0.753534,-0.347133 -0.270933,0 -0.4826,0.110067 -0.2032,0.1016 -0.347133,0.270933 -0.143934,0.169333 -0.2286,0.389467 -0.0762,0.220133 -0.101601,0.448733 z"
         id="path247" />
      <path
         d="m 51.343384,55.716371 q 0.4826,0 0.7112,-0.127 0.237067,-0.127 0.237067,-0.4064 0,-0.287867 -0.2286,-0.4572 -0.2286,-0.169334 -0.753534,-0.381 -0.254,-0.1016 -0.491066,-0.203201 -0.228601,-0.110066 -0.397934,-0.254 -0.169333,-0.143933 -0.270933,-0.347133 -0.1016,-0.2032 -0.1016,-0.499534 0,-0.5842 0.4318,-0.922867 0.4318,-0.347133 1.176867,-0.347133 0.186267,0 0.372533,0.0254 0.186267,0.01693 0.347134,0.0508 0.160867,0.0254 0.2794,0.05927 0.127,0.03387 0.194733,0.05927 l -0.143933,0.677334 q -0.127,-0.06773 -0.397933,-0.135467 -0.270934,-0.0762 -0.651934,-0.0762 -0.3302,0 -0.575734,0.135467 -0.245533,0.127 -0.245533,0.4064 0,0.143933 0.0508,0.254 0.05927,0.110067 0.169333,0.2032 0.118534,0.08467 0.287867,0.160867 0.169334,0.0762 0.4064,0.160867 0.313267,0.118533 0.558801,0.237066 0.245533,0.110067 0.414866,0.262467 0.1778,0.1524 0.270934,0.372534 0.09313,0.211666 0.09313,0.524933 0,0.6096 -0.4572,0.922867 -0.448734,0.313267 -1.286934,0.313267 -0.5842,0 -0.9144,-0.1016 -0.3302,-0.09313 -0.448734,-0.143933 l 0.143934,-0.677334 q 0.135466,0.0508 0.4318,0.1524 0.296333,0.1016 0.7874,0.1016 z"
         id="path249" />
      <path
         d="m 55.119512,55.716371 q 0.4826,0 0.7112,-0.127 0.237067,-0.127 0.237067,-0.4064 0,-0.287867 -0.2286,-0.4572 -0.2286,-0.169334 -0.753534,-0.381 -0.254,-0.1016 -0.491067,-0.203201 -0.2286,-0.110066 -0.397933,-0.254 -0.169333,-0.143933 -0.270934,-0.347133 -0.1016,-0.2032 -0.1016,-0.499534 0,-0.5842 0.431801,-0.922867 0.4318,-0.347133 1.176867,-0.347133 0.186266,0 0.372533,0.0254 0.186267,0.01693 0.347134,0.0508 0.160866,0.0254 0.2794,0.05927 0.127,0.03387 0.194733,0.05927 l -0.143933,0.677334 q -0.127,-0.06773 -0.397934,-0.135467 -0.270933,-0.0762 -0.651933,-0.0762 -0.3302,0 -0.575734,0.135467 -0.245533,0.127 -0.245533,0.4064 0,0.143933 0.0508,0.254 0.05927,0.110067 0.169333,0.2032 0.118534,0.08467 0.287867,0.160867 0.169333,0.0762 0.4064,0.160867 0.313267,0.118533 0.5588,0.237066 0.245534,0.110067 0.414867,0.262467 0.1778,0.1524 0.270934,0.372534 0.09313,0.211666 0.09313,0.524933 0,0.6096 -0.4572,0.922867 -0.448734,0.313267 -1.286934,0.313267 -0.5842,0 -0.9144,-0.1016 -0.330201,-0.09313 -0.448734,-0.143933 l 0.143933,-0.677334 q 0.135467,0.0508 0.431801,0.1524 0.296333,0.1016 0.7874,0.1016 z"
         id="path251" />
      <path
         d="m 59.361306,55.716371 q 0.2794,0 0.491067,-0.0085 0.220133,-0.01693 0.364066,-0.0508 v -1.312333 q -0.08467,-0.04233 -0.2794,-0.06773 -0.186267,-0.03387 -0.4572,-0.03387 -0.1778,0 -0.381,0.0254 -0.194734,0.0254 -0.364067,0.110066 -0.160867,0.0762 -0.270933,0.220134 -0.110067,0.135466 -0.110067,0.364066 0,0.423334 0.270933,0.592667 0.270934,0.160867 0.736601,0.160867 z m -0.06773,-3.945468 q 0.474134,0 0.795867,0.127 0.3302,0.118533 0.524934,0.347133 0.2032,0.220134 0.287867,0.533401 0.08467,0.3048 0.08467,0.677333 v 2.751668 q -0.1016,0.01693 -0.287866,0.0508 -0.177801,0.0254 -0.406401,0.0508 -0.2286,0.0254 -0.499533,0.04233 -0.262467,0.0254 -0.524934,0.0254 -0.372533,0 -0.6858,-0.0762 -0.313267,-0.0762 -0.541867,-0.237066 -0.2286,-0.169334 -0.3556,-0.440267 -0.127,-0.270934 -0.127,-0.651934 0,-0.364067 0.143933,-0.626533 0.1524,-0.262467 0.4064,-0.423334 0.254001,-0.160867 0.592667,-0.237067 0.338667,-0.0762 0.711201,-0.0762 0.118533,0 0.245533,0.01693 0.127,0.0085 0.237067,0.03387 0.118533,0.01693 0.2032,0.03387 0.08467,0.01693 0.118533,0.0254 v -0.220133 q 0,-0.194734 -0.04233,-0.381001 -0.04233,-0.194733 -0.1524,-0.338666 -0.110067,-0.1524 -0.3048,-0.237067 -0.186267,-0.09313 -0.491067,-0.09313 -0.389467,0 -0.6858,0.05927 -0.287867,0.0508 -0.431801,0.110067 l -0.09313,-0.651934 q 0.1524,-0.06773 0.508,-0.127 0.3556,-0.06773 0.770467,-0.06773 z"
         id="path253" />
      <path
         d="m 65.050902,55.843371 q -0.1016,0.06773 -0.397934,0.1778 -0.287866,0.1016 -0.677333,0.1016 -0.397934,0 -0.753534,-0.127 -0.347133,-0.127 -0.6096,-0.389467 -0.262467,-0.270933 -0.414867,-0.668867 -0.1524,-0.397933 -0.1524,-0.948267 0,-0.4826 0.143933,-0.880533 0.143934,-0.4064 0.414867,-0.694267 0.2794,-0.296334 0.677334,-0.4572 0.397933,-0.169334 0.897467,-0.169334 0.550333,0 0.956734,0.08467 0.414866,0.0762 0.694267,0.143933 v 3.928535 q 0,1.016001 -0.524934,1.473201 -0.524934,0.4572 -1.591734,0.4572 -0.414867,0 -0.7874,-0.06773 -0.364067,-0.06773 -0.635001,-0.160867 l 0.143934,-0.6858 q 0.237067,0.09313 0.575733,0.160866 0.347134,0.0762 0.719667,0.0762 0.702734,0 1.007534,-0.2794 0.313267,-0.2794 0.313267,-0.889 z m -0.0085,-3.268134 q -0.118533,-0.03387 -0.321733,-0.05927 -0.194734,-0.03387 -0.5334,-0.03387 -0.635001,0 -0.982134,0.414867 -0.338667,0.414867 -0.338667,1.100667 0,0.381 0.09313,0.651934 0.1016,0.270933 0.262467,0.448733 0.169334,0.1778 0.381,0.262467 0.220134,0.08467 0.448734,0.08467 0.313267,0 0.575733,-0.08467 0.262467,-0.09313 0.414867,-0.211667 z"
         id="path255" />
      <path
         d="m 66.938962,54.09077 q 0,-0.5842 0.169334,-1.016 0.169333,-0.440267 0.448733,-0.728134 0.2794,-0.287866 0.643467,-0.4318 0.364067,-0.143933 0.745067,-0.143933 0.889,0 1.363134,0.5588 0.474133,0.550334 0.474133,1.684867 0,0.0508 0,0.135467 0,0.0762 -0.0085,0.143934 h -3.014135 q 0.0508,0.6858 0.397934,1.0414 0.347133,0.3556 1.083734,0.3556 0.414866,0 0.694266,-0.06773 0.287867,-0.0762 0.431801,-0.143934 l 0.110066,0.660401 q -0.143933,0.0762 -0.508,0.160866 -0.3556,0.08467 -0.8128,0.08467 -0.575734,0 -0.999067,-0.169333 -0.414867,-0.1778 -0.685801,-0.482601 -0.270933,-0.3048 -0.4064,-0.719667 -0.127,-0.423333 -0.127,-0.922867 z m 3.022601,-0.4318 q 0.0085,-0.5334 -0.270933,-0.872067 -0.270933,-0.347133 -0.753534,-0.347133 -0.270933,0 -0.4826,0.110067 -0.2032,0.1016 -0.347133,0.270933 -0.143934,0.169333 -0.2286,0.389467 -0.0762,0.220133 -0.1016,0.448733 z"
         id="path257" />
      <path
         d="m 77.61541,50.416236 h 0.821267 v 5.867402 H 77.61541 v -2.709334 h -2.870201 v 2.709334 h -0.821267 v -5.867402 h 0.821267 v 2.446867 h 2.870201 z"
         id="path259" />
      <path
         d="m 79.59661,54.09077 q 0,-0.5842 0.169334,-1.016 0.169333,-0.440267 0.448733,-0.728134 0.2794,-0.287866 0.643467,-0.4318 0.364067,-0.143933 0.745067,-0.143933 0.889001,0 1.363134,0.5588 0.474134,0.550334 0.474134,1.684867 0,0.0508 0,0.135467 0,0.0762 -0.0085,0.143934 h -3.014135 q 0.0508,0.6858 0.397934,1.0414 0.347133,0.3556 1.083734,0.3556 0.414866,0 0.694267,-0.06773 0.287866,-0.0762 0.4318,-0.143934 l 0.110066,0.660401 q -0.143933,0.0762 -0.508,0.160866 -0.3556,0.08467 -0.8128,0.08467 -0.575734,0 -0.999067,-0.169333 -0.414867,-0.1778 -0.6858,-0.482601 -0.270934,-0.3048 -0.406401,-0.719667 -0.127,-0.423333 -0.127,-0.922867 z m 3.022602,-0.4318 q 0.0085,-0.5334 -0.270934,-0.872067 -0.270933,-0.347133 -0.753534,-0.347133 -0.270933,0 -0.4826,0.110067 -0.2032,0.1016 -0.347133,0.270933 -0.143934,0.169333 -0.2286,0.389467 -0.0762,0.220133 -0.1016,0.448733 z"
         id="path261" />
      <path
         d="m 86.200597,51.787836 q 0.1016,0 0.2286,0.01693 0.135467,0.0085 0.262467,0.03387 0.127,0.01693 0.2286,0.04233 0.110067,0.01693 0.160867,0.03387 l -0.135467,0.685801 q -0.09313,-0.03387 -0.313266,-0.0762 -0.211667,-0.0508 -0.550334,-0.0508 -0.220133,0 -0.440267,0.0508 -0.211667,0.04233 -0.2794,0.05927 v 3.699935 h -0.7874 V 52.06724 q 0.2794,-0.1016 0.694267,-0.186266 0.414866,-0.09313 0.931333,-0.09313 z"
         id="path263" />
      <path
         d="m 87.597595,54.09077 q 0,-0.5842 0.169333,-1.016 0.169333,-0.440267 0.448733,-0.728134 0.279401,-0.287866 0.643467,-0.4318 0.364067,-0.143933 0.745067,-0.143933 0.889001,0 1.363134,0.5588 0.474134,0.550334 0.474134,1.684867 0,0.0508 0,0.135467 0,0.0762 -0.0085,0.143934 h -3.014134 q 0.0508,0.6858 0.397933,1.0414 0.347134,0.3556 1.083734,0.3556 0.414867,0 0.694267,-0.06773 0.287867,-0.0762 0.4318,-0.143934 l 0.110067,0.660401 q -0.143934,0.0762 -0.508001,0.160866 -0.3556,0.08467 -0.8128,0.08467 -0.575733,0 -0.999067,-0.169333 -0.414867,-0.1778 -0.6858,-0.482601 -0.270934,-0.3048 -0.4064,-0.719667 -0.127,-0.423333 -0.127,-0.922867 z m 3.022601,-0.4318 q 0.0085,-0.5334 -0.270934,-0.872067 -0.270933,-0.347133 -0.753533,-0.347133 -0.270934,0 -0.482601,0.110067 -0.2032,0.1016 -0.347133,0.270933 -0.143933,0.169333 -0.2286,0.389467 -0.0762,0.220133 -0.1016,0.448733 z"
         id="path265" />
    </g>
  </g>
</svg>
